<mxfile host="app.diagrams.net" modified="2022-07-19T11:04:17.646Z" agent="5.0 (Macintosh)" etag="sEfJfJ9h6LP2DAipjZeI" version="20.0.1" type="github">
  <diagram id="JOMCHfXGrEfI4-kCWfHs" name="Page-1">
    <mxGraphModel dx="2682" dy="1040" grid="1" gridSize="10" guides="1" tooltips="1" connect="1" arrows="1" fold="1" page="1" pageScale="1" pageWidth="850" pageHeight="1100" math="0" shadow="0">
      <root>
        <mxCell id="0" />
        <mxCell id="1" parent="0" />
        <mxCell id="MXAJJX4QBFy2R5doN9UM-1" value="" style="rounded=1;whiteSpace=wrap;html=1;" vertex="1" parent="1">
          <mxGeometry x="100" y="140" width="600" height="540" as="geometry" />
        </mxCell>
        <mxCell id="MXAJJX4QBFy2R5doN9UM-21" style="edgeStyle=orthogonalEdgeStyle;rounded=0;orthogonalLoop=1;jettySize=auto;html=1;exitX=1;exitY=0.5;exitDx=0;exitDy=0;entryX=0;entryY=0.5;entryDx=0;entryDy=0;dashed=1;startArrow=blockThin;startFill=1;endArrow=classicThin;endFill=1;" edge="1" parent="1" source="MXAJJX4QBFy2R5doN9UM-10" target="MXAJJX4QBFy2R5doN9UM-12">
          <mxGeometry relative="1" as="geometry" />
        </mxCell>
        <mxCell id="MXAJJX4QBFy2R5doN9UM-10" value="" style="rounded=1;whiteSpace=wrap;html=1;" vertex="1" parent="1">
          <mxGeometry x="110" y="280" width="260" height="210" as="geometry" />
        </mxCell>
        <mxCell id="MXAJJX4QBFy2R5doN9UM-25" style="edgeStyle=orthogonalEdgeStyle;rounded=0;orthogonalLoop=1;jettySize=auto;html=1;entryX=0.5;entryY=0;entryDx=0;entryDy=0;startArrow=none;startFill=0;endArrow=classicThin;endFill=1;" edge="1" parent="1" source="MXAJJX4QBFy2R5doN9UM-2" target="MXAJJX4QBFy2R5doN9UM-10">
          <mxGeometry relative="1" as="geometry" />
        </mxCell>
        <mxCell id="MXAJJX4QBFy2R5doN9UM-2" value="Load Balancer" style="sketch=0;points=[[0,0,0],[0.25,0,0],[0.5,0,0],[0.75,0,0],[1,0,0],[0,1,0],[0.25,1,0],[0.5,1,0],[0.75,1,0],[1,1,0],[0,0.25,0],[0,0.5,0],[0,0.75,0],[1,0.25,0],[1,0.5,0],[1,0.75,0]];outlineConnect=0;fontColor=#232F3E;gradientColor=#945DF2;gradientDirection=north;fillColor=#5A30B5;strokeColor=#ffffff;dashed=0;verticalLabelPosition=bottom;verticalAlign=top;align=center;html=1;fontSize=12;fontStyle=0;aspect=fixed;shape=mxgraph.aws4.resourceIcon;resIcon=mxgraph.aws4.elastic_load_balancing;" vertex="1" parent="1">
          <mxGeometry x="201" y="160" width="78" height="78" as="geometry" />
        </mxCell>
        <mxCell id="MXAJJX4QBFy2R5doN9UM-3" value="Amazon Lightsail" style="sketch=0;outlineConnect=0;fontColor=#232F3E;gradientColor=none;strokeColor=#ffffff;fillColor=#232F3E;dashed=0;verticalLabelPosition=middle;verticalAlign=bottom;align=center;html=1;whiteSpace=wrap;fontSize=10;fontStyle=1;spacing=3;shape=mxgraph.aws4.productIcon;prIcon=mxgraph.aws4.lightsail;" vertex="1" parent="1">
          <mxGeometry x="144" y="360" width="80" height="110" as="geometry" />
        </mxCell>
        <mxCell id="MXAJJX4QBFy2R5doN9UM-6" value="Amazon Lightsail" style="sketch=0;outlineConnect=0;fontColor=#232F3E;gradientColor=none;strokeColor=#ffffff;fillColor=#232F3E;dashed=0;verticalLabelPosition=middle;verticalAlign=bottom;align=center;html=1;whiteSpace=wrap;fontSize=10;fontStyle=1;spacing=3;shape=mxgraph.aws4.productIcon;prIcon=mxgraph.aws4.lightsail;" vertex="1" parent="1">
          <mxGeometry x="260" y="360" width="80" height="110" as="geometry" />
        </mxCell>
        <mxCell id="MXAJJX4QBFy2R5doN9UM-7" value="Lightsail S3" style="sketch=0;points=[[0,0,0],[0.25,0,0],[0.5,0,0],[0.75,0,0],[1,0,0],[0,1,0],[0.25,1,0],[0.5,1,0],[0.75,1,0],[1,1,0],[0,0.25,0],[0,0.5,0],[0,0.75,0],[1,0.25,0],[1,0.5,0],[1,0.75,0]];outlineConnect=0;fontColor=#232F3E;gradientColor=#60A337;gradientDirection=north;fillColor=#277116;strokeColor=#ffffff;dashed=0;verticalLabelPosition=bottom;verticalAlign=top;align=center;html=1;fontSize=12;fontStyle=0;aspect=fixed;shape=mxgraph.aws4.resourceIcon;resIcon=mxgraph.aws4.s3;" vertex="1" parent="1">
          <mxGeometry x="201" y="560" width="78" height="78" as="geometry" />
        </mxCell>
        <mxCell id="MXAJJX4QBFy2R5doN9UM-8" value="" style="sketch=0;html=1;dashed=0;whitespace=wrap;fillColor=#2875E2;strokeColor=#ffffff;points=[[0.005,0.63,0],[0.1,0.2,0],[0.9,0.2,0],[0.5,0,0],[0.995,0.63,0],[0.72,0.99,0],[0.5,1,0],[0.28,0.99,0]];shape=mxgraph.kubernetes.icon;prIcon=api" vertex="1" parent="1">
          <mxGeometry x="215" y="290" width="50" height="48" as="geometry" />
        </mxCell>
        <mxCell id="MXAJJX4QBFy2R5doN9UM-12" value="" style="rounded=1;whiteSpace=wrap;html=1;" vertex="1" parent="1">
          <mxGeometry x="425" y="280" width="260" height="210" as="geometry" />
        </mxCell>
        <mxCell id="MXAJJX4QBFy2R5doN9UM-11" value="EC2" style="sketch=0;points=[[0,0,0],[0.25,0,0],[0.5,0,0],[0.75,0,0],[1,0,0],[0,1,0],[0.25,1,0],[0.5,1,0],[0.75,1,0],[1,1,0],[0,0.25,0],[0,0.5,0],[0,0.75,0],[1,0.25,0],[1,0.5,0],[1,0.75,0]];outlineConnect=0;fontColor=#232F3E;gradientColor=#F78E04;gradientDirection=north;fillColor=#D05C17;strokeColor=#ffffff;dashed=0;verticalLabelPosition=bottom;verticalAlign=top;align=center;html=1;fontSize=12;fontStyle=0;aspect=fixed;shape=mxgraph.aws4.resourceIcon;resIcon=mxgraph.aws4.ec2;" vertex="1" parent="1">
          <mxGeometry x="460" y="346" width="78" height="78" as="geometry" />
        </mxCell>
        <mxCell id="MXAJJX4QBFy2R5doN9UM-13" value="EC2" style="sketch=0;points=[[0,0,0],[0.25,0,0],[0.5,0,0],[0.75,0,0],[1,0,0],[0,1,0],[0.25,1,0],[0.5,1,0],[0.75,1,0],[1,1,0],[0,0.25,0],[0,0.5,0],[0,0.75,0],[1,0.25,0],[1,0.5,0],[1,0.75,0]];outlineConnect=0;fontColor=#232F3E;gradientColor=#F78E04;gradientDirection=north;fillColor=#D05C17;strokeColor=#ffffff;dashed=0;verticalLabelPosition=bottom;verticalAlign=top;align=center;html=1;fontSize=12;fontStyle=0;aspect=fixed;shape=mxgraph.aws4.resourceIcon;resIcon=mxgraph.aws4.ec2;" vertex="1" parent="1">
          <mxGeometry x="570" y="346" width="78" height="78" as="geometry" />
        </mxCell>
        <mxCell id="MXAJJX4QBFy2R5doN9UM-14" value="K8S" style="text;html=1;strokeColor=none;fillColor=none;align=center;verticalAlign=middle;whiteSpace=wrap;rounded=0;" vertex="1" parent="1">
          <mxGeometry x="210" y="338" width="60" height="30" as="geometry" />
        </mxCell>
        <mxCell id="MXAJJX4QBFy2R5doN9UM-15" value="Public S3" style="sketch=0;points=[[0,0,0],[0.25,0,0],[0.5,0,0],[0.75,0,0],[1,0,0],[0,1,0],[0.25,1,0],[0.5,1,0],[0.75,1,0],[1,1,0],[0,0.25,0],[0,0.5,0],[0,0.75,0],[1,0.25,0],[1,0.5,0],[1,0.75,0]];outlineConnect=0;fontColor=#232F3E;gradientColor=#60A337;gradientDirection=north;fillColor=#277116;strokeColor=#ffffff;dashed=0;verticalLabelPosition=bottom;verticalAlign=top;align=center;html=1;fontSize=12;fontStyle=0;aspect=fixed;shape=mxgraph.aws4.resourceIcon;resIcon=mxgraph.aws4.s3;" vertex="1" parent="1">
          <mxGeometry x="529" y="560" width="78" height="78" as="geometry" />
        </mxCell>
        <mxCell id="MXAJJX4QBFy2R5doN9UM-24" style="edgeStyle=orthogonalEdgeStyle;rounded=0;orthogonalLoop=1;jettySize=auto;html=1;exitX=0.5;exitY=1;exitDx=0;exitDy=0;entryX=0.5;entryY=0;entryDx=0;entryDy=0;entryPerimeter=0;dashed=1;startArrow=blockThin;startFill=1;endArrow=classicThin;endFill=1;" edge="1" parent="1" source="MXAJJX4QBFy2R5doN9UM-17" target="MXAJJX4QBFy2R5doN9UM-7">
          <mxGeometry relative="1" as="geometry" />
        </mxCell>
        <mxCell id="MXAJJX4QBFy2R5doN9UM-17" value="VPC A" style="text;html=1;strokeColor=none;fillColor=none;align=center;verticalAlign=middle;whiteSpace=wrap;rounded=0;" vertex="1" parent="1">
          <mxGeometry x="210" y="490" width="60" height="30" as="geometry" />
        </mxCell>
        <mxCell id="MXAJJX4QBFy2R5doN9UM-23" style="edgeStyle=orthogonalEdgeStyle;rounded=0;orthogonalLoop=1;jettySize=auto;html=1;entryX=0.5;entryY=0;entryDx=0;entryDy=0;entryPerimeter=0;dashed=1;startArrow=blockThin;startFill=1;endArrow=classicThin;endFill=1;" edge="1" parent="1" source="MXAJJX4QBFy2R5doN9UM-18" target="MXAJJX4QBFy2R5doN9UM-15">
          <mxGeometry relative="1" as="geometry" />
        </mxCell>
        <mxCell id="MXAJJX4QBFy2R5doN9UM-18" value="VPC B" style="text;html=1;strokeColor=none;fillColor=none;align=center;verticalAlign=middle;whiteSpace=wrap;rounded=0;" vertex="1" parent="1">
          <mxGeometry x="538" y="490" width="60" height="30" as="geometry" />
        </mxCell>
        <mxCell id="MXAJJX4QBFy2R5doN9UM-22" value="VPC Peering" style="text;html=1;strokeColor=none;fillColor=none;align=center;verticalAlign=middle;whiteSpace=wrap;rounded=0;" vertex="1" parent="1">
          <mxGeometry x="370" y="400" width="60" height="30" as="geometry" />
        </mxCell>
      </root>
    </mxGraphModel>
  </diagram>
</mxfile>
